<svg xmlns="http://www.w3.org/2000/svg" viewBox="0 0 200 50">
  <rect width="200" height="50" rx="4" fill="#9b1844"/>
  <g transform="translate(12, 8)" fill="none" stroke="white" stroke-width="1.5">
    <path d="M17 6 C17 2.5 13.5 0 10 0 C6.5 0 3 2.5 3 6 C3 9 5 11 5 13 L15 13 C15 11 17 9 17 6Z"/>
    <line x1="6" y1="16" x2="14" y2="16"/>
    <line x1="7" y1="19" x2="13" y2="19"/>
    <line x1="8" y1="22" x2="12" y2="22"/>
    <circle cx="10" cy="6" r="2" fill="white" stroke="none"/>
    <line x1="10" y1="8" x2="10" y2="11"/>
    <line x1="0" y1="6" x2="3" y2="6"/>
    <line x1="17" y1="6" x2="20" y2="6"/>
    <line x1="3" y1="1" x2="1" y2="-1"/>
    <line x1="17" y1="1" x2="19" y2="-1"/>
    <circle cx="10" cy="30" r="1" fill="white" stroke="none"/>
    <line x1="10" y1="24" x2="10" y2="29"/>
    <line x1="10" y1="31" x2="10" y2="34"/>
  </g>
  <text x="42" y="33" font-family="Arial, Helvetica, sans-serif" font-weight="700" font-size="26" fill="white" letter-spacing="1">TECH TIPS</text>
</svg>
